<mxfile host="app.diagrams.net" modified="2025-01-11T00:00:00.000Z" agent="5.0" etag="ghi789" version="24.7.17">
  <diagram name="GOKIGEN MOOD UI構造図" id="ui-structure">
    <mxGraphModel dx="1422" dy="794" grid="1" gridSize="10" guides="1" tooltips="1" connect="1" arrows="1" fold="1" page="1" pageScale="1" pageWidth="1169" pageHeight="827" math="0" shadow="0">
      <root>
        <mxCell id="0" />
        <mxCell id="1" parent="0" />
        
        <!-- ヘッダーセクション -->
        <mxCell id="header" value="ヘッダーセクション" style="swimlane;fontStyle=1;align=center;verticalAlign=top;childLayout=stackLayout;horizontal=1;startSize=30;horizontalStack=0;resizeParent=1;resizeLast=0;collapsible=1;marginBottom=0;whiteSpace=wrap;html=1;fillColor=#dae8fc;strokeColor=#6c8ebf;" vertex="1" parent="1">
          <mxGeometry x="40" y="40" width="1000" height="100" as="geometry" />
        </mxCell>
        
        <mxCell id="title" value="GOKIGEN MOOD タイトル" style="rounded=1;whiteSpace=wrap;html=1;fillColor=#e1d5e7;strokeColor=#9673a6;" vertex="1" parent="header">
          <mxGeometry x="20" y="40" width="200" height="40" as="geometry" />
        </mxCell>
        
        <mxCell id="dpi-select" value="DPI選択セレクトボックス" style="rounded=1;whiteSpace=wrap;html=1;fillColor=#e1d5e7;strokeColor=#9673a6;" vertex="1" parent="header">
          <mxGeometry x="250" y="40" width="200" height="40" as="geometry" />
        </mxCell>
        
        <!-- メインエリア -->
        <mxCell id="main-area" value="メインエリア" style="swimlane;fontStyle=1;align=center;verticalAlign=top;childLayout=stackLayout;horizontal=1;startSize=30;horizontalStack=0;resizeParent=1;resizeLast=0;collapsible=1;marginBottom=0;whiteSpace=wrap;html=1;fillColor=#d5e8d4;strokeColor=#82b366;" vertex="1" parent="1">
          <mxGeometry x="40" y="180" width="1000" height="400" as="geometry" />
        </mxCell>
        
        <mxCell id="frame1" value="写真フレーム1 - A4版&#xa;210×297mm" style="rounded=1;whiteSpace=wrap;html=1;fillColor=#f8cecc;strokeColor=#b85450;" vertex="1" parent="main-area">
          <mxGeometry x="50" y="50" width="150" height="200" as="geometry" />
        </mxCell>
        
        <mxCell id="frame2" value="写真フレーム2 - L版&#xa;89×127mm" style="rounded=1;whiteSpace=wrap;html=1;fillColor=#f8cecc;strokeColor=#b85450;" vertex="1" parent="main-area">
          <mxGeometry x="250" y="50" width="100" height="140" as="geometry" />
        </mxCell>
        
        <mxCell id="frame3" value="写真フレーム3 - L版&#xa;127×89mm" style="rounded=1;whiteSpace=wrap;html=1;fillColor=#f8cecc;strokeColor=#b85450;" vertex="1" parent="main-area">
          <mxGeometry x="250" y="220" width="140" height="100" as="geometry" />
        </mxCell>
        
        <mxCell id="sample-btn" value="サンプル写真ボタン" style="rounded=1;whiteSpace=wrap;html=1;fillColor=#fff2cc;strokeColor=#d6b656;" vertex="1" parent="main-area">
          <mxGeometry x="450" y="50" width="150" height="40" as="geometry" />
        </mxCell>
        
        <mxCell id="reset-btn" value="リセットボタン" style="rounded=1;whiteSpace=wrap;html=1;fillColor=#fff2cc;strokeColor=#d6b656;" vertex="1" parent="main-area">
          <mxGeometry x="450" y="110" width="150" height="40" as="geometry" />
        </mxCell>
        
        <mxCell id="edit-btn1" value="編集ボタン" style="rounded=1;whiteSpace=wrap;html=1;fillColor=#d5e8d4;strokeColor=#82b366;" vertex="1" parent="main-area">
          <mxGeometry x="60" y="260" width="60" height="30" as="geometry" />
        </mxCell>
        
        <mxCell id="edit-btn2" value="編集ボタン" style="rounded=1;whiteSpace=wrap;html=1;fillColor=#d5e8d4;strokeColor=#82b366;" vertex="1" parent="main-area">
          <mxGeometry x="260" y="200" width="60" height="30" as="geometry" />
        </mxCell>
        
        <mxCell id="edit-btn3" value="編集ボタン" style="rounded=1;whiteSpace=wrap;html=1;fillColor=#d5e8d4;strokeColor=#82b366;" vertex="1" parent="main-area">
          <mxGeometry x="260" y="330" width="60" height="30" as="geometry" />
        </mxCell>
        
        <!-- 編集モーダル -->
        <mxCell id="modal" value="編集モーダル" style="swimlane;fontStyle=1;align=center;verticalAlign=top;childLayout=stackLayout;horizontal=1;startSize=30;horizontalStack=0;resizeParent=1;resizeLast=0;collapsible=1;marginBottom=0;whiteSpace=wrap;html=1;fillColor=#fff2cc;strokeColor=#d6b656;" vertex="1" parent="1">
          <mxGeometry x="40" y="620" width="1000" height="150" as="geometry" />
        </mxCell>
        
        <mxCell id="photo-preview" value="写真プレビューエリア" style="rounded=1;whiteSpace=wrap;html=1;fillColor=#e1d5e7;strokeColor=#9673a6;" vertex="1" parent="modal">
          <mxGeometry x="20" y="40" width="200" height="80" as="geometry" />
        </mxCell>
        
        <mxCell id="photo-tabs" value="写真切り替えタブ&#xa;写真1 | 写真2 | 写真3" style="rounded=1;whiteSpace=wrap;html=1;fillColor=#e1d5e7;strokeColor=#9673a6;" vertex="1" parent="modal">
          <mxGeometry x="250" y="40" width="200" height="40" as="geometry" />
        </mxCell>
        
        <mxCell id="arrow-btns" value="左右矢印ボタン&#xa;← | →" style="rounded=1;whiteSpace=wrap;html=1;fillColor=#e1d5e7;strokeColor=#9673a6;" vertex="1" parent="modal">
          <mxGeometry x="250" y="90" width="200" height="30" as="geometry" />
        </mxCell>
        
        <mxCell id="filter-controls" value="フィルターコントロール&#xa;デュオトーン・色調調整" style="rounded=1;whiteSpace=wrap;html=1;fillColor=#f8cecc;strokeColor=#b85450;" vertex="1" parent="modal">
          <mxGeometry x="480" y="40" width="200" height="40" as="geometry" />
        </mxCell>
        
        <mxCell id="trimming-controls" value="トリミングコントロール&#xa;ドラッグ・ズーム" style="rounded=1;whiteSpace=wrap;html=1;fillColor=#f8cecc;strokeColor=#b85450;" vertex="1" parent="modal">
          <mxGeometry x="480" y="90" width="200" height="30" as="geometry" />
        </mxCell>
        
        <mxCell id="save-cancel" value="保存・キャンセルボタン" style="rounded=1;whiteSpace=wrap;html=1;fillColor=#d5e8d4;strokeColor=#82b366;" vertex="1" parent="modal">
          <mxGeometry x="720" y="40" width="150" height="40" as="geometry" />
        </mxCell>
        
        <!-- ダウンロードセクション -->
        <mxCell id="download-section" value="ダウンロードセクション" style="swimlane;fontStyle=1;align=center;verticalAlign=top;childLayout=stackLayout;horizontal=1;startSize=30;horizontalStack=0;resizeParent=1;resizeLast=0;collapsible=1;marginBottom=0;whiteSpace=wrap;html=1;fillColor=#f8cecc;strokeColor=#b85450;" vertex="1" parent="1">
          <mxGeometry x="40" y="800" width="1000" height="100" as="geometry" />
        </mxCell>
        
        <mxCell id="individual-dl" value="個別ダウンロードボタン" style="rounded=1;whiteSpace=wrap;html=1;fillColor=#e1d5e7;strokeColor=#9673a6;" vertex="1" parent="download-section">
          <mxGeometry x="50" y="40" width="150" height="40" as="geometry" />
        </mxCell>
        
        <mxCell id="batch-dl" value="一括ダウンロードボタン" style="rounded=1;whiteSpace=wrap;html=1;fillColor=#e1d5e7;strokeColor=#9673a6;" vertex="1" parent="download-section">
          <mxGeometry x="250" y="40" width="150" height="40" as="geometry" />
        </mxCell>
        
        <!-- 接続線 -->
        <mxCell id="conn1" value="" style="endArrow=classic;html=1;rounded=0;exitX=0.5;exitY=1;exitDx=0;exitDy=0;entryX=0.5;entryY=0;entryDx=0;entryDy=0;" edge="1" parent="1" source="header" target="main-area">
          <mxGeometry width="50" height="50" relative="1" as="geometry">
            <mxPoint x="540" y="150" as="sourcePoint" />
            <mxPoint x="590" y="100" as="targetPoint" />
          </mxGeometry>
        </mxCell>
        
        <mxCell id="conn2" value="" style="endArrow=classic;html=1;rounded=0;exitX=0.5;exitY=1;exitDx=0;exitDy=0;entryX=0.5;entryY=0;entryDx=0;entryDy=0;" edge="1" parent="1" source="main-area" target="modal">
          <mxGeometry width="50" height="50" relative="1" as="geometry">
            <mxPoint x="540" y="590" as="sourcePoint" />
            <mxPoint x="590" y="540" as="targetPoint" />
          </mxGeometry>
        </mxCell>
        
        <mxCell id="conn3" value="" style="endArrow=classic;html=1;rounded=0;exitX=0.5;exitY=1;exitDx=0;exitDy=0;entryX=0.5;entryY=0;entryDx=0;entryDy=0;" edge="1" parent="1" source="modal" target="download-section">
          <mxGeometry width="50" height="50" relative="1" as="geometry">
            <mxPoint x="540" y="780" as="sourcePoint" />
            <mxPoint x="590" y="730" as="targetPoint" />
          </mxGeometry>
        </mxCell>
        
        <mxCell id="conn4" value="" style="endArrow=classic;html=1;rounded=0;exitX=1;exitY=0.5;exitDx=0;exitDy=0;entryX=0;entryY=0.5;entryDx=0;entryDy=0;" edge="1" parent="1" source="frame1" target="photo-preview">
          <mxGeometry width="50" height="50" relative="1" as="geometry">
              <mxPoint x="200" y="280" as="sourcePoint" />
              <mxPoint x="250" y="230" as="targetPoint" />
          </mxGeometry>
        </mxCell>
        
        <mxCell id="conn5" value="" style="endArrow=classic;html=1;rounded=0;exitX=1;exitY=0.5;exitDx=0;exitDy=0;entryX=0;entryY=0.5;entryDx=0;entryDy=0;" edge="1" parent="1" source="frame2" target="photo-tabs">
          <mxGeometry width="50" height="50" relative="1" as="geometry">
              <mxPoint x="350" y="120" as="sourcePoint" />
              <mxPoint x="400" y="70" as="targetPoint" />
          </mxGeometry>
        </mxCell>
        
        <mxCell id="conn6" value="" style="endArrow=classic;html=1;rounded=0;exitX=1;exitY=0.5;exitDx=0;exitDy=0;entryX=0;entryY=0.5;entryDx=0;entryDy=0;" edge="1" parent="1" source="frame3" target="photo-tabs">
          <mxGeometry width="50" height="50" relative="1" as="geometry">
              <mxPoint x="390" y="270" as="sourcePoint" />
              <mxPoint x="440" y="220" as="targetPoint" />
          </mxGeometry>
        </mxCell>
        
      </root>
    </mxGraphModel>
  </diagram>
</mxfile>






